HIERARCHY
ROOT Hips
{
	OFFSET 0.000000 0.000000 0.000000
	CHANNELS 6 Xposition Yposition Zposition Zrotation Yrotation Xrotation 
	JOINT LowerBack
	{
		OFFSET 0.000000 0.000000 0.000000
		CHANNELS 3 Zrotation Yrotation Xrotation
		JOINT Spine
		{
			OFFSET 0.028270 2.035590 -0.193380
			CHANNELS 3 Zrotation Yrotation Xrotation
			JOINT Spine1
			{
				OFFSET 0.056720 2.048850 -0.042750
				CHANNELS 3 Zrotation Yrotation Xrotation
				JOINT Neck
				{
					OFFSET 0.000000 0.000000 0.000000
					CHANNELS 3 Zrotation Yrotation Xrotation
					JOINT Neck1
					{
						OFFSET -0.054170 1.746240 0.172020
						CHANNELS 3 Zrotation Yrotation Xrotation
						JOINT Head
						{
							OFFSET 0.104070 1.761360 -0.123970
							CHANNELS 3 Zrotation Yrotation Xrotation
							End Site
							{
								OFFSET 0.000000 0.000000 0.000000
							}
						}
					}
				}
				JOINT LeftShoulder
				{
					OFFSET 0.000000 0.000000 0.000000
					CHANNELS 3 Zrotation Yrotation Xrotation
					JOINT LeftArm
					{
						OFFSET 3.362410 1.200890 -0.311210
						CHANNELS 3 Zrotation Yrotation Xrotation
						JOINT LeftForeArm
						{
							OFFSET 4.983000 -0.000000 -0.000000
							CHANNELS 3 Zrotation Yrotation Xrotation
							JOINT LeftHand
							{
								OFFSET 3.483560 -0.000000 -0.000000
								CHANNELS 3 Zrotation Yrotation Xrotation
								JOINT LeftFingerBase
								{
									OFFSET 0.000000 0.000000 0.000000
									CHANNELS 3 Zrotation Yrotation Xrotation
									JOINT LeftHandIndex1
									{
										OFFSET 0.715260 -0.000000 -0.000000
										CHANNELS 3 Zrotation Yrotation Xrotation
										End Site
										{
											OFFSET 0.000000 0.000000 0.000000
										}
									}
								}
								JOINT LThumb
								{
									OFFSET 0.000000 0.000000 0.000000
									CHANNELS 3 Zrotation Yrotation Xrotation
									End Site
									{
										OFFSET 0.000000 0.000000 0.000000
									}
								}
							}
						}
					}
				}
				JOINT RightShoulder
				{
					OFFSET 0.000000 0.000000 0.000000
					CHANNELS 3 Zrotation Yrotation Xrotation
					JOINT RightArm
					{
						OFFSET -3.136600 1.374050 -0.404650
						CHANNELS 3 Zrotation Yrotation Xrotation
						JOINT RightForeArm
						{
							OFFSET -5.241900 -0.000000 -0.000000
							CHANNELS 3 Zrotation Yrotation Xrotation
							JOINT RightHand
							{
								OFFSET -3.444170 -0.000000 -0.000000
								CHANNELS 3 Zrotation Yrotation Xrotation
								JOINT RightFingerBase
								{
									OFFSET 0.000000 0.000000 0.000000
									CHANNELS 3 Zrotation Yrotation Xrotation
									JOINT RightHandIndex1
									{
										OFFSET -0.622530 -0.000000 -0.000000
										CHANNELS 3 Zrotation Yrotation Xrotation
										End Site
										{
											OFFSET 0.000000 0.000000 0.000000
										}
									}
								}
								JOINT RThumb
								{
									OFFSET 0.000000 0.000000 0.000000
									CHANNELS 3 Zrotation Yrotation Xrotation
									End Site
									{
										OFFSET 0.000000 0.000000 0.000000
									}
								}
							}
						}
					}
				}
			}
		}
	}
}
}
MOTION
Frames: 10
Frame Time: 0.008333
9.898772 16.074369 -4.621445 -157.227078 70.353972 -133.719033 6.776573 -2.046164 4.064953 0.258021 -2.346993 -2.172001 -7.445296 -2.288829 -0.093970 8.642114 -2.888743 -0.437064 -2.833506 -0.283393 1.757612 0.000000 0.000000 0.000000 -0.409844 6.222450 2.026245 -67.618809 20.152290 24.016777 -1.738894 -47.511741 0.001816 8.537463 0.143213 0.011894 -0.114538 -0.004909 0.000000 0.000000 0.000000 0.000000 0.000000 0.000000 0.000000 7.509603 -1.078898 -3.919076 82.650008 21.546510 19.958866 -0.004506 86.070769 -0.022570 -2.389524 10.486970 -0.228380 -0.014238 -0.512578 -0.000000 0.000000 0.000000 0.000000 0.000000 0.000000 0.000000 
10.068603 16.178269 -4.734429 -158.216185 70.396781 -134.418343 6.139169 -1.656518 3.847649 0.156448 -1.935313 -2.251775 -7.260691 -1.880730 -0.275552 8.157637 -2.536340 -0.107596 -2.574685 -0.272818 1.851546 0.000000 0.000000 0.000000 -0.615815 6.627017 1.943190 -65.631493 22.082385 26.140733 -1.672870 -50.421806 0.003070 8.287277 -0.206470 -0.013851 -0.118834 -0.008039 0.000000 0.000000 0.000000 0.000000 0.000000 0.000000 0.000000 5.779371 -0.390503 -4.120378 83.142490 23.585821 20.786955 -0.027394 87.445671 -0.021852 -2.043153 10.546099 -0.195712 -0.022509 -0.533627 -0.000000 0.000000 0.000000 0.000000 0.000000 0.000000 0.000000 
10.237984 16.290830 -4.852556 -159.217351 70.444977 -135.116461 5.484349 -1.264553 3.644732 0.052392 -1.517218 -2.325865 -7.071084 -1.466556 -0.435966 7.693361 -2.243955 0.184484 -2.329494 -0.262737 1.934605 0.000000 0.000000 0.000000 -0.802360 7.096073 1.848186 -63.571297 23.746016 28.224329 -1.600119 -53.308745 0.003955 8.047226 -0.419344 -0.028398 -0.123096 -0.010481 0.000000 0.000000 0.000000 0.000000 0.000000 0.000000 0.000000 4.169374 0.222976 -4.311441 83.308598 25.570218 21.360186 -0.049522 88.817860 -0.020953 -1.717209 10.577724 -0.164143 -0.030285 -0.553391 -0.000000 0.000000 0.000000 0.000000 0.000000 0.000000 0.000000 
10.407160 16.411265 -4.975584 -160.256943 70.492806 -135.852625 4.810098 -0.879172 3.463232 -0.055637 -1.101785 -2.394141 -6.881570 -1.055651 -0.581239 7.255212 -2.011438 0.445369 -2.104757 -0.253576 2.008571 0.000000 0.000000 0.000000 -0.975909 7.540349 1.744896 -61.503968 25.237949 30.144793 -1.523254 -56.127241 0.004490 7.775343 -0.486238 -0.031854 -0.126584 -0.012864 -0.000000 0.000000 0.000000 0.000000 0.000000 0.000000 0.000000 2.720002 0.755844 -4.475255 83.151702 27.496823 21.701068 179.929304 89.873235 179.979996 -1.433596 10.593101 -0.136269 -0.036982 -0.571613 -0.000000 0.000000 0.000000 0.000000 0.000000 0.000000 0.000000 
10.576085 16.537966 -5.103302 -161.345062 70.528975 -136.648938 4.118249 -0.511214 3.311657 -0.166090 -0.700309 -2.451321 -6.687499 -0.658975 -0.699294 6.838040 -1.809522 0.665397 -1.898327 -0.244963 2.070452 0.000000 0.000000 0.000000 -1.077611 8.014540 1.645614 -59.527120 26.477759 31.928545 -1.447760 -58.742048 0.004677 7.464811 -0.417359 -0.025819 -0.129414 -0.015298 -0.000000 0.000000 0.000000 0.000000 0.000000 0.000000 0.000000 1.413034 1.234645 -4.616383 82.709920 29.338087 21.799841 179.909491 88.654615 179.980821 -1.198247 10.603594 -0.112996 -0.042854 -0.588222 -0.000000 0.000000 0.000000 0.000000 0.000000 0.000000 0.000000 
10.745114 16.669100 -5.235285 -162.497163 70.544322 -137.528526 3.412737 -0.169278 3.191732 -0.278402 -0.322181 -2.497477 -6.490942 -0.285870 -0.794323 6.440125 -1.628815 0.847382 -1.710752 -0.236929 2.121137 0.000000 0.000000 0.000000 -1.101202 8.483415 1.553827 -57.692726 27.536406 33.523697 -1.375126 -61.146632 0.004562 7.105436 -0.238293 -0.012994 -0.131281 -0.017960 -0.000000 0.000000 0.000000 0.000000 0.000000 0.000000 0.000000 0.246282 1.665637 -4.729769 82.021944 31.079181 21.684062 179.892215 87.553971 179.981348 -1.028234 10.611302 -0.096119 -0.047591 -0.603119 -0.000000 0.000000 0.000000 0.000000 0.000000 0.000000 0.000000 
10.914579 16.802367 -5.371208 -163.709292 70.527269 -138.491847 2.701757 0.139514 3.103153 -0.390674 0.024458 -2.532370 -6.292053 0.055731 -0.867795 6.056770 -1.453981 0.991199 -1.539531 -0.229281 2.160658 0.000000 0.000000 0.000000 -1.030701 8.952652 1.473846 -56.042320 28.442466 34.925474 -1.306564 -63.335040 0.004210 6.699042 0.014091 0.003020 -0.132164 -0.020712 -0.000000 0.000000 0.000000 0.000000 0.000000 0.000000 0.000000 -0.803160 2.062628 -4.818473 81.139852 32.698864 21.376358 179.878859 86.577417 179.981433 -0.930753 10.614015 -0.086241 -0.051203 -0.616309 -0.000000 0.000000 0.000000 0.000000 0.000000 0.000000 0.000000 
11.085114 16.935360 -5.510529 -164.984132 70.470728 -139.542627 1.989838 0.410981 3.041058 -0.503177 0.334562 -2.559305 -6.097287 0.360768 -0.930427 5.691829 -1.292095 1.103821 -1.386150 -0.222211 2.191267 0.000000 0.000000 0.000000 -0.891892 9.373059 1.400095 -54.562176 29.318286 36.096675 -1.240199 -65.386775 0.003709 6.246845 0.293988 0.018624 -0.131850 -0.023452 -0.000000 0.000000 0.000000 0.000000 0.000000 0.000000 0.000000 -1.729256 2.419591 -4.877365 80.106775 34.197754 20.929982 179.870179 85.729794 179.981010 -0.915658 10.602693 -0.084661 -0.053252 -0.627729 -0.000000 0.000000 0.000000 0.000000 0.000000 0.000000 0.000000 
11.256998 17.065233 -5.652960 -166.278890 70.365792 -140.637751 1.293810 0.643006 3.000294 -0.611889 0.604701 -2.578662 -5.905137 0.626101 -0.981172 5.339234 -1.123651 1.182555 -1.245473 -0.215341 2.212305 0.000000 0.000000 0.000000 -0.663699 9.794490 1.337785 -53.269712 30.135734 37.082349 -1.176192 -67.301917 0.003130 5.761340 0.560119 0.031021 -0.130647 -0.025648 -0.000000 0.000000 0.000000 0.000000 0.000000 0.000000 0.000000 -2.573403 2.757759 -4.919029 78.981578 35.551350 20.357940 179.866878 84.983838 179.980085 -0.967534 10.570563 -0.089478 -0.054316 -0.637553 -0.000000 0.000000 0.000000 0.000000 0.000000 0.000000 0.000000 
11.430717 17.189567 -5.798242 -167.570051 70.208765 -141.752762 0.618331 0.836730 2.973754 -0.717645 0.835387 -2.594202 -5.724121 0.852208 -1.028854 5.008452 -0.967848 1.233272 -1.120543 -0.208949 2.225699 0.000000 0.000000 0.000000 -0.383177 10.179587 1.278051 -52.116243 30.991854 37.870414 -1.110922 -69.176580 0.002569 5.253578 0.770049 0.038415 -0.128505 -0.027033 -0.000000 0.000000 0.000000 0.000000 0.000000 0.000000 0.000000 -3.317192 3.062653 -4.939224 77.798801 36.775268 19.718076 179.868122 84.328226 179.978768 -1.079346 10.506969 -0.099994 -0.054149 -0.645737 -0.000000 0.000000 0.000000 0.000000 0.000000 0.000000 0.000000 
